<?xml version="1.0" encoding="UTF-8"?>
<svg xmlns="http://www.w3.org/2000/svg" xmlns:xlink="http://www.w3.org/1999/xlink" width="px" height="px" viewBox="0 0 336 384" version="1.1">
<g id="surface1">
<path style=" stroke:none;fill-rule:nonzero;fill:rgb(0%,0%,0%);fill-opacity:1;" d="M 168.074219 105.75 C 120.375 105.75 81.898438 144.226562 81.898438 191.925781 C 81.898438 239.625 120.375 278.101562 168.074219 278.101562 C 215.773438 278.101562 254.25 239.625 254.25 191.925781 C 254.25 144.226562 215.773438 105.75 168.074219 105.75 Z M 168.074219 247.949219 C 137.25 247.949219 112.050781 222.824219 112.050781 191.925781 C 112.050781 161.023438 137.175781 135.898438 168.074219 135.898438 C 198.976562 135.898438 224.101562 161.023438 224.101562 191.925781 C 224.101562 222.824219 198.898438 247.949219 168.074219 247.949219 Z M 277.875 102.226562 C 277.875 113.398438 268.875 122.324219 257.773438 122.324219 C 246.601562 122.324219 237.675781 113.324219 237.675781 102.226562 C 237.675781 91.125 246.675781 82.125 257.773438 82.125 C 268.875 82.125 277.875 91.125 277.875 102.226562 Z M 334.949219 122.625 C 333.675781 95.699219 327.523438 71.851562 307.800781 52.199219 C 288.148438 32.550781 264.300781 26.398438 237.375 25.050781 C 209.625 23.476562 126.449219 23.476562 98.699219 25.050781 C 71.851562 26.324219 48 32.476562 28.273438 52.125 C 8.550781 71.773438 2.476562 95.625 1.125 122.550781 C -0.449219 150.300781 -0.449219 233.476562 1.125 261.226562 C 2.398438 288.148438 8.550781 312 28.273438 331.648438 C 48 351.300781 71.773438 357.449219 98.699219 358.800781 C 126.449219 360.375 209.625 360.375 237.375 358.800781 C 264.300781 357.523438 288.148438 351.375 307.800781 331.648438 C 327.449219 312 333.601562 288.148438 334.949219 261.226562 C 336.523438 233.476562 336.523438 150.375 334.949219 122.625 Z M 299.101562 291 C 293.25 305.699219 281.925781 317.023438 267.148438 322.949219 C 245.023438 331.726562 192.523438 329.699219 168.074219 329.699219 C 143.625 329.699219 91.050781 331.648438 69 322.949219 C 54.300781 317.101562 42.976562 305.773438 37.050781 291 C 28.273438 268.875 30.300781 216.375 30.300781 191.925781 C 30.300781 167.476562 28.351562 114.898438 37.050781 92.851562 C 42.898438 78.148438 54.226562 66.824219 69 60.898438 C 91.125 52.125 143.625 54.148438 168.074219 54.148438 C 192.523438 54.148438 245.101562 52.199219 267.148438 60.898438 C 281.851562 66.75 293.175781 78.074219 299.101562 92.851562 C 307.875 114.976562 305.851562 167.476562 305.851562 191.925781 C 305.851562 216.375 307.875 268.949219 299.101562 291 Z M 299.101562 291 "/>
</g>
</svg>
