<?xml version="1.0" encoding="UTF-8"?>
<svg xmlns="http://www.w3.org/2000/svg" xmlns:xlink="http://www.w3.org/1999/xlink" width="px" height="px" viewBox="0 0 384 384" version="1.1">
<g id="surface1">
<path style=" stroke:none;fill-rule:nonzero;fill:rgb(0%,0%,0%);fill-opacity:1;" d="M 344.527344 113.785156 C 344.769531 117.199219 344.769531 120.609375 344.769531 124.019531 C 344.769531 228.0625 265.585938 347.9375 120.851562 347.9375 C 76.265625 347.9375 34.84375 335.023438 0 312.609375 C 6.335938 313.339844 12.425781 313.585938 19.003906 313.585938 C 55.796875 313.585938 89.664062 301.15625 116.710938 279.960938 C 82.113281 279.230469 53.117188 256.570312 43.125 225.382812 C 48 226.113281 52.871094 226.597656 57.988281 226.597656 C 65.054688 226.597656 72.121094 225.625 78.699219 223.917969 C 42.640625 216.609375 15.59375 184.933594 15.59375 146.679688 L 15.59375 145.707031 C 26.070312 151.554688 38.253906 155.207031 51.167969 155.695312 C 29.96875 141.5625 16.082031 117.441406 16.082031 90.152344 C 16.082031 75.535156 19.976562 62.132812 26.800781 50.4375 C 65.542969 98.191406 123.777344 129.378906 189.074219 132.792969 C 187.855469 126.945312 187.125 120.851562 187.125 114.761719 C 187.125 71.390625 222.210938 36.0625 265.828125 36.0625 C 288.484375 36.0625 308.953125 45.5625 323.328125 60.914062 C 341.113281 57.503906 358.171875 50.925781 373.277344 41.910156 C 367.429688 60.183594 355.003906 75.535156 338.679688 85.28125 C 354.515625 83.574219 369.867188 79.1875 384 73.097656 C 373.28125 88.691406 359.878906 102.578125 344.527344 113.785156 Z M 344.527344 113.785156 "/>
</g>
</svg>
